<?xml version="1.0" encoding="utf-8" ?>
<svg baseProfile="tiny" height="40" version="1.2" width="40" xmlns="http://www.w3.org/2000/svg" xmlns:ev="http://www.w3.org/2001/xml-events" xmlns:xlink="http://www.w3.org/1999/xlink"><defs /><rect fill="rgb(0,153,255)" height="1" width="1" x="33" y="1" /><rect fill="rgb(0,153,255)" height="1" width="1" x="34" y="1" /><rect fill="rgb(0,153,255)" height="1" width="1" x="31" y="2" /><rect fill="rgb(0,153,255)" height="1" width="1" x="32" y="2" /><rect fill="rgb(0,153,255)" height="1" width="1" x="33" y="2" /><rect fill="rgb(0,153,255)" height="1" width="1" x="34" y="2" /><rect fill="rgb(0,153,255)" height="1" width="1" x="29" y="3" /><rect fill="rgb(0,153,255)" height="1" width="1" x="30" y="3" /><rect fill="rgb(0,153,255)" height="1" width="1" x="31" y="3" /><rect fill="rgb(0,153,255)" height="1" width="1" x="32" y="3" /><rect fill="rgb(0,153,255)" height="1" width="1" x="33" y="3" /><rect fill="rgb(0,153,255)" height="1" width="1" x="34" y="3" /><rect fill="rgb(0,153,255)" height="1" width="1" x="27" y="4" /><rect fill="rgb(0,153,255)" height="1" width="1" x="28" y="4" /><rect fill="rgb(0,153,255)" height="1" width="1" x="29" y="4" /><rect fill="rgb(0,153,255)" height="1" width="1" x="30" y="4" /><rect fill="rgb(0,153,255)" height="1" width="1" x="31" y="4" /><rect fill="rgb(0,153,255)" height="1" width="1" x="32" y="4" /><rect fill="rgb(0,153,255)" height="1" width="1" x="33" y="4" /><rect fill="rgb(0,153,255)" height="1" width="1" x="34" y="4" /><rect fill="rgb(0,153,255)" height="1" width="1" x="24" y="5" /><rect fill="rgb(0,153,255)" height="1" width="1" x="25" y="5" /><rect fill="rgb(0,153,255)" height="1" width="1" x="26" y="5" /><rect fill="rgb(0,153,255)" height="1" width="1" x="27" y="5" /><rect fill="rgb(0,153,255)" height="1" width="1" x="28" y="5" /><rect fill="rgb(0,153,255)" height="1" width="1" x="29" y="5" /><rect fill="rgb(0,153,255)" height="1" width="1" x="30" y="5" /><rect fill="rgb(0,153,255)" height="1" width="1" x="31" y="5" /><rect fill="rgb(0,153,255)" height="1" width="1" x="32" y="5" /><rect fill="rgb(0,153,255)" height="1" width="1" x="33" y="5" /><rect fill="rgb(0,153,255)" height="1" width="1" x="34" y="5" /><rect fill="rgb(0,153,255)" height="1" width="1" x="23" y="6" /><rect fill="rgb(0,153,255)" height="1" width="1" x="24" y="6" /><rect fill="rgb(0,153,255)" height="1" width="1" x="25" y="6" /><rect fill="rgb(0,153,255)" height="1" width="1" x="26" y="6" /><rect fill="rgb(0,153,255)" height="1" width="1" x="27" y="6" /><rect fill="rgb(0,153,255)" height="1" width="1" x="28" y="6" /><rect fill="rgb(0,153,255)" height="1" width="1" x="29" y="6" /><rect fill="rgb(0,153,255)" height="1" width="1" x="32" y="6" /><rect fill="rgb(0,153,255)" height="1" width="1" x="33" y="6" /><rect fill="rgb(0,153,255)" height="1" width="1" x="34" y="6" /><rect fill="rgb(0,153,255)" height="1" width="1" x="20" y="7" /><rect fill="rgb(0,153,255)" height="1" width="1" x="21" y="7" /><rect fill="rgb(0,153,255)" height="1" width="1" x="22" y="7" /><rect fill="rgb(0,153,255)" height="1" width="1" x="23" y="7" /><rect fill="rgb(0,153,255)" height="1" width="1" x="24" y="7" /><rect fill="rgb(0,153,255)" height="1" width="1" x="25" y="7" /><rect fill="rgb(0,153,255)" height="1" width="1" x="26" y="7" /><rect fill="rgb(0,153,255)" height="1" width="1" x="27" y="7" /><rect fill="rgb(0,153,255)" height="1" width="1" x="32" y="7" /><rect fill="rgb(0,153,255)" height="1" width="1" x="33" y="7" /><rect fill="rgb(0,153,255)" height="1" width="1" x="34" y="7" /><rect fill="rgb(0,153,255)" height="1" width="1" x="18" y="8" /><rect fill="rgb(0,153,255)" height="1" width="1" x="19" y="8" /><rect fill="rgb(0,153,255)" height="1" width="1" x="20" y="8" /><rect fill="rgb(0,153,255)" height="1" width="1" x="21" y="8" /><rect fill="rgb(0,153,255)" height="1" width="1" x="22" y="8" /><rect fill="rgb(0,153,255)" height="1" width="1" x="23" y="8" /><rect fill="rgb(0,153,255)" height="1" width="1" x="24" y="8" /><rect fill="rgb(0,153,255)" height="1" width="1" x="25" y="8" /><rect fill="rgb(0,153,255)" height="1" width="1" x="32" y="8" /><rect fill="rgb(0,153,255)" height="1" width="1" x="33" y="8" /><rect fill="rgb(0,153,255)" height="1" width="1" x="34" y="8" /><rect fill="rgb(0,153,255)" height="1" width="1" x="17" y="9" /><rect fill="rgb(0,153,255)" height="1" width="1" x="18" y="9" /><rect fill="rgb(0,153,255)" height="1" width="1" x="19" y="9" /><rect fill="rgb(0,153,255)" height="1" width="1" x="20" y="9" /><rect fill="rgb(0,153,255)" height="1" width="1" x="21" y="9" /><rect fill="rgb(0,153,255)" height="1" width="1" x="22" y="9" /><rect fill="rgb(0,153,255)" height="1" width="1" x="23" y="9" /><rect fill="rgb(0,153,255)" height="1" width="1" x="32" y="9" /><rect fill="rgb(0,153,255)" height="1" width="1" x="33" y="9" /><rect fill="rgb(0,153,255)" height="1" width="1" x="34" y="9" /><rect fill="rgb(0,153,255)" height="1" width="1" x="16" y="10" /><rect fill="rgb(0,153,255)" height="1" width="1" x="17" y="10" /><rect fill="rgb(0,153,255)" height="1" width="1" x="18" y="10" /><rect fill="rgb(0,153,255)" height="1" width="1" x="19" y="10" /><rect fill="rgb(0,153,255)" height="1" width="1" x="20" y="10" /><rect fill="rgb(0,153,255)" height="1" width="1" x="21" y="10" /><rect fill="rgb(0,153,255)" height="1" width="1" x="32" y="10" /><rect fill="rgb(0,153,255)" height="1" width="1" x="33" y="10" /><rect fill="rgb(0,153,255)" height="1" width="1" x="34" y="10" /><rect fill="rgb(0,153,255)" height="1" width="1" x="13" y="11" /><rect fill="rgb(0,153,255)" height="1" width="1" x="16" y="11" /><rect fill="rgb(0,153,255)" height="1" width="1" x="17" y="11" /><rect fill="rgb(0,153,255)" height="1" width="1" x="18" y="11" /><rect fill="rgb(0,153,255)" height="1" width="1" x="19" y="11" /><rect fill="rgb(0,153,255)" height="1" width="1" x="30" y="11" /><rect fill="rgb(0,153,255)" height="1" width="1" x="31" y="11" /><rect fill="rgb(0,153,255)" height="1" width="1" x="32" y="11" /><rect fill="rgb(0,153,255)" height="1" width="1" x="33" y="11" /><rect fill="rgb(0,153,255)" height="1" width="1" x="34" y="11" /><rect fill="rgb(0,153,255)" height="1" width="1" x="11" y="12" /><rect fill="rgb(0,153,255)" height="1" width="1" x="12" y="12" /><rect fill="rgb(0,153,255)" height="1" width="1" x="13" y="12" /><rect fill="rgb(0,153,255)" height="1" width="1" x="16" y="12" /><rect fill="rgb(0,153,255)" height="1" width="1" x="17" y="12" /><rect fill="rgb(0,153,255)" height="1" width="1" x="18" y="12" /><rect fill="rgb(0,153,255)" height="1" width="1" x="19" y="12" /><rect fill="rgb(0,153,255)" height="1" width="1" x="28" y="12" /><rect fill="rgb(0,153,255)" height="1" width="1" x="29" y="12" /><rect fill="rgb(0,153,255)" height="1" width="1" x="30" y="12" /><rect fill="rgb(0,153,255)" height="1" width="1" x="31" y="12" /><rect fill="rgb(0,153,255)" height="1" width="1" x="32" y="12" /><rect fill="rgb(0,153,255)" height="1" width="1" x="33" y="12" /><rect fill="rgb(0,153,255)" height="1" width="1" x="34" y="12" /><rect fill="rgb(0,153,255)" height="1" width="1" x="9" y="13" /><rect fill="rgb(0,153,255)" height="1" width="1" x="10" y="13" /><rect fill="rgb(0,153,255)" height="1" width="1" x="11" y="13" /><rect fill="rgb(0,153,255)" height="1" width="1" x="12" y="13" /><rect fill="rgb(0,153,255)" height="1" width="1" x="13" y="13" /><rect fill="rgb(0,153,255)" height="1" width="1" x="16" y="13" /><rect fill="rgb(0,153,255)" height="1" width="1" x="17" y="13" /><rect fill="rgb(0,153,255)" height="1" width="1" x="18" y="13" /><rect fill="rgb(0,153,255)" height="1" width="1" x="19" y="13" /><rect fill="rgb(0,153,255)" height="1" width="1" x="26" y="13" /><rect fill="rgb(0,153,255)" height="1" width="1" x="27" y="13" /><rect fill="rgb(0,153,255)" height="1" width="1" x="28" y="13" /><rect fill="rgb(0,153,255)" height="1" width="1" x="29" y="13" /><rect fill="rgb(0,153,255)" height="1" width="1" x="30" y="13" /><rect fill="rgb(0,153,255)" height="1" width="1" x="31" y="13" /><rect fill="rgb(0,153,255)" height="1" width="1" x="32" y="13" /><rect fill="rgb(0,153,255)" height="1" width="1" x="7" y="14" /><rect fill="rgb(0,153,255)" height="1" width="1" x="8" y="14" /><rect fill="rgb(0,153,255)" height="1" width="1" x="9" y="14" /><rect fill="rgb(0,153,255)" height="1" width="1" x="10" y="14" /><rect fill="rgb(0,153,255)" height="1" width="1" x="11" y="14" /><rect fill="rgb(0,153,255)" height="1" width="1" x="12" y="14" /><rect fill="rgb(0,153,255)" height="1" width="1" x="13" y="14" /><rect fill="rgb(0,153,255)" height="1" width="1" x="16" y="14" /><rect fill="rgb(0,153,255)" height="1" width="1" x="17" y="14" /><rect fill="rgb(0,153,255)" height="1" width="1" x="18" y="14" /><rect fill="rgb(0,153,255)" height="1" width="1" x="19" y="14" /><rect fill="rgb(0,153,255)" height="1" width="1" x="24" y="14" /><rect fill="rgb(0,153,255)" height="1" width="1" x="25" y="14" /><rect fill="rgb(0,153,255)" height="1" width="1" x="26" y="14" /><rect fill="rgb(0,153,255)" height="1" width="1" x="27" y="14" /><rect fill="rgb(0,153,255)" height="1" width="1" x="28" y="14" /><rect fill="rgb(0,153,255)" height="1" width="1" x="29" y="14" /><rect fill="rgb(0,153,255)" height="1" width="1" x="30" y="14" /><rect fill="rgb(0,153,255)" height="1" width="1" x="6" y="15" /><rect fill="rgb(0,153,255)" height="1" width="1" x="7" y="15" /><rect fill="rgb(0,153,255)" height="1" width="1" x="8" y="15" /><rect fill="rgb(0,153,255)" height="1" width="1" x="9" y="15" /><rect fill="rgb(0,153,255)" height="1" width="1" x="10" y="15" /><rect fill="rgb(0,153,255)" height="1" width="1" x="11" y="15" /><rect fill="rgb(0,153,255)" height="1" width="1" x="16" y="15" /><rect fill="rgb(0,153,255)" height="1" width="1" x="17" y="15" /><rect fill="rgb(0,153,255)" height="1" width="1" x="18" y="15" /><rect fill="rgb(0,153,255)" height="1" width="1" x="19" y="15" /><rect fill="rgb(0,153,255)" height="1" width="1" x="23" y="15" /><rect fill="rgb(0,153,255)" height="1" width="1" x="24" y="15" /><rect fill="rgb(0,153,255)" height="1" width="1" x="25" y="15" /><rect fill="rgb(0,153,255)" height="1" width="1" x="26" y="15" /><rect fill="rgb(0,153,255)" height="1" width="1" x="27" y="15" /><rect fill="rgb(0,153,255)" height="1" width="1" x="28" y="15" /><rect fill="rgb(0,153,255)" height="1" width="1" x="5" y="16" /><rect fill="rgb(0,153,255)" height="1" width="1" x="6" y="16" /><rect fill="rgb(0,153,255)" height="1" width="1" x="7" y="16" /><rect fill="rgb(0,153,255)" height="1" width="1" x="8" y="16" /><rect fill="rgb(0,153,255)" height="1" width="1" x="9" y="16" /><rect fill="rgb(0,153,255)" height="1" width="1" x="16" y="16" /><rect fill="rgb(0,153,255)" height="1" width="1" x="17" y="16" /><rect fill="rgb(0,153,255)" height="1" width="1" x="18" y="16" /><rect fill="rgb(0,153,255)" height="1" width="1" x="19" y="16" /><rect fill="rgb(0,153,255)" height="1" width="1" x="23" y="16" /><rect fill="rgb(0,153,255)" height="1" width="1" x="24" y="16" /><rect fill="rgb(0,153,255)" height="1" width="1" x="25" y="16" /><rect fill="rgb(0,153,255)" height="1" width="1" x="26" y="16" /><rect fill="rgb(0,153,255)" height="1" width="1" x="5" y="17" /><rect fill="rgb(0,153,255)" height="1" width="1" x="6" y="17" /><rect fill="rgb(0,153,255)" height="1" width="1" x="7" y="17" /><rect fill="rgb(0,153,255)" height="1" width="1" x="8" y="17" /><rect fill="rgb(0,153,255)" height="1" width="1" x="16" y="17" /><rect fill="rgb(0,153,255)" height="1" width="1" x="17" y="17" /><rect fill="rgb(0,153,255)" height="1" width="1" x="18" y="17" /><rect fill="rgb(0,153,255)" height="1" width="1" x="19" y="17" /><rect fill="rgb(0,153,255)" height="1" width="1" x="23" y="17" /><rect fill="rgb(0,153,255)" height="1" width="1" x="24" y="17" /><rect fill="rgb(0,153,255)" height="1" width="1" x="25" y="17" /><rect fill="rgb(0,153,255)" height="1" width="1" x="26" y="17" /><rect fill="rgb(0,153,255)" height="1" width="1" x="5" y="18" /><rect fill="rgb(0,153,255)" height="1" width="1" x="6" y="18" /><rect fill="rgb(0,153,255)" height="1" width="1" x="7" y="18" /><rect fill="rgb(0,153,255)" height="1" width="1" x="8" y="18" /><rect fill="rgb(0,153,255)" height="1" width="1" x="16" y="18" /><rect fill="rgb(0,153,255)" height="1" width="1" x="17" y="18" /><rect fill="rgb(0,153,255)" height="1" width="1" x="18" y="18" /><rect fill="rgb(0,153,255)" height="1" width="1" x="19" y="18" /><rect fill="rgb(0,153,255)" height="1" width="1" x="23" y="18" /><rect fill="rgb(0,153,255)" height="1" width="1" x="24" y="18" /><rect fill="rgb(0,153,255)" height="1" width="1" x="25" y="18" /><rect fill="rgb(0,153,255)" height="1" width="1" x="26" y="18" /><rect fill="rgb(0,153,255)" height="1" width="1" x="5" y="19" /><rect fill="rgb(0,153,255)" height="1" width="1" x="6" y="19" /><rect fill="rgb(0,153,255)" height="1" width="1" x="7" y="19" /><rect fill="rgb(0,153,255)" height="1" width="1" x="8" y="19" /><rect fill="rgb(0,153,255)" height="1" width="1" x="14" y="19" /><rect fill="rgb(0,153,255)" height="1" width="1" x="15" y="19" /><rect fill="rgb(0,153,255)" height="1" width="1" x="16" y="19" /><rect fill="rgb(0,153,255)" height="1" width="1" x="17" y="19" /><rect fill="rgb(0,153,255)" height="1" width="1" x="18" y="19" /><rect fill="rgb(0,153,255)" height="1" width="1" x="19" y="19" /><rect fill="rgb(0,153,255)" height="1" width="1" x="23" y="19" /><rect fill="rgb(0,153,255)" height="1" width="1" x="24" y="19" /><rect fill="rgb(0,153,255)" height="1" width="1" x="25" y="19" /><rect fill="rgb(0,153,255)" height="1" width="1" x="26" y="19" /><rect fill="rgb(0,153,255)" height="1" width="1" x="5" y="20" /><rect fill="rgb(0,153,255)" height="1" width="1" x="6" y="20" /><rect fill="rgb(0,153,255)" height="1" width="1" x="7" y="20" /><rect fill="rgb(0,153,255)" height="1" width="1" x="8" y="20" /><rect fill="rgb(0,153,255)" height="1" width="1" x="12" y="20" /><rect fill="rgb(0,153,255)" height="1" width="1" x="13" y="20" /><rect fill="rgb(0,153,255)" height="1" width="1" x="14" y="20" /><rect fill="rgb(0,153,255)" height="1" width="1" x="15" y="20" /><rect fill="rgb(0,153,255)" height="1" width="1" x="16" y="20" /><rect fill="rgb(0,153,255)" height="1" width="1" x="17" y="20" /><rect fill="rgb(0,153,255)" height="1" width="1" x="18" y="20" /><rect fill="rgb(0,153,255)" height="1" width="1" x="23" y="20" /><rect fill="rgb(0,153,255)" height="1" width="1" x="24" y="20" /><rect fill="rgb(0,153,255)" height="1" width="1" x="25" y="20" /><rect fill="rgb(0,153,255)" height="1" width="1" x="26" y="20" /><rect fill="rgb(0,153,255)" height="1" width="1" x="5" y="21" /><rect fill="rgb(0,153,255)" height="1" width="1" x="6" y="21" /><rect fill="rgb(0,153,255)" height="1" width="1" x="7" y="21" /><rect fill="rgb(0,153,255)" height="1" width="1" x="8" y="21" /><rect fill="rgb(0,153,255)" height="1" width="1" x="10" y="21" /><rect fill="rgb(0,153,255)" height="1" width="1" x="11" y="21" /><rect fill="rgb(0,153,255)" height="1" width="1" x="12" y="21" /><rect fill="rgb(0,153,255)" height="1" width="1" x="13" y="21" /><rect fill="rgb(0,153,255)" height="1" width="1" x="14" y="21" /><rect fill="rgb(0,153,255)" height="1" width="1" x="15" y="21" /><rect fill="rgb(0,153,255)" height="1" width="1" x="16" y="21" /><rect fill="rgb(0,153,255)" height="1" width="1" x="17" y="21" /><rect fill="rgb(0,153,255)" height="1" width="1" x="23" y="21" /><rect fill="rgb(0,153,255)" height="1" width="1" x="24" y="21" /><rect fill="rgb(0,153,255)" height="1" width="1" x="25" y="21" /><rect fill="rgb(0,153,255)" height="1" width="1" x="26" y="21" /><rect fill="rgb(0,153,255)" height="1" width="1" x="5" y="22" /><rect fill="rgb(0,153,255)" height="1" width="1" x="6" y="22" /><rect fill="rgb(0,153,255)" height="1" width="1" x="7" y="22" /><rect fill="rgb(0,153,255)" height="1" width="1" x="8" y="22" /><rect fill="rgb(0,153,255)" height="1" width="1" x="9" y="22" /><rect fill="rgb(0,153,255)" height="1" width="1" x="10" y="22" /><rect fill="rgb(0,153,255)" height="1" width="1" x="11" y="22" /><rect fill="rgb(0,153,255)" height="1" width="1" x="12" y="22" /><rect fill="rgb(0,153,255)" height="1" width="1" x="13" y="22" /><rect fill="rgb(0,153,255)" height="1" width="1" x="14" y="22" /><rect fill="rgb(0,153,255)" height="1" width="1" x="23" y="22" /><rect fill="rgb(0,153,255)" height="1" width="1" x="24" y="22" /><rect fill="rgb(0,153,255)" height="1" width="1" x="25" y="22" /><rect fill="rgb(0,153,255)" height="1" width="1" x="26" y="22" /><rect fill="rgb(0,153,255)" height="1" width="1" x="5" y="23" /><rect fill="rgb(0,153,255)" height="1" width="1" x="6" y="23" /><rect fill="rgb(0,153,255)" height="1" width="1" x="7" y="23" /><rect fill="rgb(0,153,255)" height="1" width="1" x="8" y="23" /><rect fill="rgb(0,153,255)" height="1" width="1" x="9" y="23" /><rect fill="rgb(0,153,255)" height="1" width="1" x="10" y="23" /><rect fill="rgb(0,153,255)" height="1" width="1" x="11" y="23" /><rect fill="rgb(0,153,255)" height="1" width="1" x="12" y="23" /><rect fill="rgb(0,153,255)" height="1" width="1" x="13" y="23" /><rect fill="rgb(0,153,255)" height="1" width="1" x="18" y="23" /><rect fill="rgb(0,153,255)" height="1" width="1" x="23" y="23" /><rect fill="rgb(0,153,255)" height="1" width="1" x="24" y="23" /><rect fill="rgb(0,153,255)" height="1" width="1" x="25" y="23" /><rect fill="rgb(0,153,255)" height="1" width="1" x="26" y="23" /><rect fill="rgb(0,153,255)" height="1" width="1" x="5" y="24" /><rect fill="rgb(0,153,255)" height="1" width="1" x="6" y="24" /><rect fill="rgb(0,153,255)" height="1" width="1" x="7" y="24" /><rect fill="rgb(0,153,255)" height="1" width="1" x="8" y="24" /><rect fill="rgb(0,153,255)" height="1" width="1" x="9" y="24" /><rect fill="rgb(0,153,255)" height="1" width="1" x="10" y="24" /><rect fill="rgb(0,153,255)" height="1" width="1" x="16" y="24" /><rect fill="rgb(0,153,255)" height="1" width="1" x="17" y="24" /><rect fill="rgb(0,153,255)" height="1" width="1" x="18" y="24" /><rect fill="rgb(0,153,255)" height="1" width="1" x="19" y="24" /><rect fill="rgb(0,153,255)" height="1" width="1" x="23" y="24" /><rect fill="rgb(0,153,255)" height="1" width="1" x="24" y="24" /><rect fill="rgb(0,153,255)" height="1" width="1" x="25" y="24" /><rect fill="rgb(0,153,255)" height="1" width="1" x="26" y="24" /><rect fill="rgb(0,153,255)" height="1" width="1" x="5" y="25" /><rect fill="rgb(0,153,255)" height="1" width="1" x="6" y="25" /><rect fill="rgb(0,153,255)" height="1" width="1" x="7" y="25" /><rect fill="rgb(0,153,255)" height="1" width="1" x="8" y="25" /><rect fill="rgb(0,153,255)" height="1" width="1" x="16" y="25" /><rect fill="rgb(0,153,255)" height="1" width="1" x="17" y="25" /><rect fill="rgb(0,153,255)" height="1" width="1" x="18" y="25" /><rect fill="rgb(0,153,255)" height="1" width="1" x="19" y="25" /><rect fill="rgb(0,153,255)" height="1" width="1" x="23" y="25" /><rect fill="rgb(0,153,255)" height="1" width="1" x="24" y="25" /><rect fill="rgb(0,153,255)" height="1" width="1" x="25" y="25" /><rect fill="rgb(0,153,255)" height="1" width="1" x="26" y="25" /><rect fill="rgb(0,153,255)" height="1" width="1" x="6" y="26" /><rect fill="rgb(0,153,255)" height="1" width="1" x="16" y="26" /><rect fill="rgb(0,153,255)" height="1" width="1" x="17" y="26" /><rect fill="rgb(0,153,255)" height="1" width="1" x="18" y="26" /><rect fill="rgb(0,153,255)" height="1" width="1" x="19" y="26" /><rect fill="rgb(0,153,255)" height="1" width="1" x="23" y="26" /><rect fill="rgb(0,153,255)" height="1" width="1" x="24" y="26" /><rect fill="rgb(0,153,255)" height="1" width="1" x="25" y="26" /><rect fill="rgb(0,153,255)" height="1" width="1" x="26" y="26" /><rect fill="rgb(0,153,255)" height="1" width="1" x="16" y="27" /><rect fill="rgb(0,153,255)" height="1" width="1" x="17" y="27" /><rect fill="rgb(0,153,255)" height="1" width="1" x="18" y="27" /><rect fill="rgb(0,153,255)" height="1" width="1" x="19" y="27" /><rect fill="rgb(0,153,255)" height="1" width="1" x="23" y="27" /><rect fill="rgb(0,153,255)" height="1" width="1" x="24" y="27" /><rect fill="rgb(0,153,255)" height="1" width="1" x="25" y="27" /><rect fill="rgb(0,153,255)" height="1" width="1" x="26" y="27" /><rect fill="rgb(0,153,255)" height="1" width="1" x="16" y="28" /><rect fill="rgb(0,153,255)" height="1" width="1" x="17" y="28" /><rect fill="rgb(0,153,255)" height="1" width="1" x="18" y="28" /><rect fill="rgb(0,153,255)" height="1" width="1" x="19" y="28" /><rect fill="rgb(0,153,255)" height="1" width="1" x="23" y="28" /><rect fill="rgb(0,153,255)" height="1" width="1" x="24" y="28" /><rect fill="rgb(0,153,255)" height="1" width="1" x="25" y="28" /><rect fill="rgb(0,153,255)" height="1" width="1" x="26" y="28" /><rect fill="rgb(0,153,255)" height="1" width="1" x="16" y="29" /><rect fill="rgb(0,153,255)" height="1" width="1" x="17" y="29" /><rect fill="rgb(0,153,255)" height="1" width="1" x="18" y="29" /><rect fill="rgb(0,153,255)" height="1" width="1" x="19" y="29" /><rect fill="rgb(0,153,255)" height="1" width="1" x="23" y="29" /><rect fill="rgb(0,153,255)" height="1" width="1" x="24" y="29" /><rect fill="rgb(0,153,255)" height="1" width="1" x="25" y="29" /><rect fill="rgb(0,153,255)" height="1" width="1" x="26" y="29" /><rect fill="rgb(0,153,255)" height="1" width="1" x="16" y="30" /><rect fill="rgb(0,153,255)" height="1" width="1" x="17" y="30" /><rect fill="rgb(0,153,255)" height="1" width="1" x="18" y="30" /><rect fill="rgb(0,153,255)" height="1" width="1" x="19" y="30" /><rect fill="rgb(0,153,255)" height="1" width="1" x="23" y="30" /><rect fill="rgb(0,153,255)" height="1" width="1" x="24" y="30" /><rect fill="rgb(0,153,255)" height="1" width="1" x="25" y="30" /><rect fill="rgb(0,153,255)" height="1" width="1" x="26" y="30" /><rect fill="rgb(0,153,255)" height="1" width="1" x="16" y="31" /><rect fill="rgb(0,153,255)" height="1" width="1" x="17" y="31" /><rect fill="rgb(0,153,255)" height="1" width="1" x="18" y="31" /><rect fill="rgb(0,153,255)" height="1" width="1" x="19" y="31" /><rect fill="rgb(0,153,255)" height="1" width="1" x="23" y="31" /><rect fill="rgb(0,153,255)" height="1" width="1" x="24" y="31" /><rect fill="rgb(0,153,255)" height="1" width="1" x="25" y="31" /><rect fill="rgb(0,153,255)" height="1" width="1" x="26" y="31" /><rect fill="rgb(0,153,255)" height="1" width="1" x="16" y="32" /><rect fill="rgb(0,153,255)" height="1" width="1" x="17" y="32" /><rect fill="rgb(0,153,255)" height="1" width="1" x="18" y="32" /><rect fill="rgb(0,153,255)" height="1" width="1" x="19" y="32" /><rect fill="rgb(0,153,255)" height="1" width="1" x="20" y="32" /><rect fill="rgb(0,153,255)" height="1" width="1" x="23" y="32" /><rect fill="rgb(0,153,255)" height="1" width="1" x="24" y="32" /><rect fill="rgb(0,153,255)" height="1" width="1" x="25" y="32" /><rect fill="rgb(0,153,255)" height="1" width="1" x="26" y="32" /><rect fill="rgb(0,153,255)" height="1" width="1" x="16" y="33" /><rect fill="rgb(0,153,255)" height="1" width="1" x="17" y="33" /><rect fill="rgb(0,153,255)" height="1" width="1" x="18" y="33" /><rect fill="rgb(0,153,255)" height="1" width="1" x="19" y="33" /><rect fill="rgb(0,153,255)" height="1" width="1" x="20" y="33" /><rect fill="rgb(0,153,255)" height="1" width="1" x="21" y="33" /><rect fill="rgb(0,153,255)" height="1" width="1" x="22" y="33" /><rect fill="rgb(0,153,255)" height="1" width="1" x="23" y="33" /><rect fill="rgb(0,153,255)" height="1" width="1" x="24" y="33" /><rect fill="rgb(0,153,255)" height="1" width="1" x="25" y="33" /><rect fill="rgb(0,153,255)" height="1" width="1" x="26" y="33" /><rect fill="rgb(0,153,255)" height="1" width="1" x="18" y="34" /><rect fill="rgb(0,153,255)" height="1" width="1" x="19" y="34" /><rect fill="rgb(0,153,255)" height="1" width="1" x="20" y="34" /><rect fill="rgb(0,153,255)" height="1" width="1" x="21" y="34" /><rect fill="rgb(0,153,255)" height="1" width="1" x="22" y="34" /><rect fill="rgb(0,153,255)" height="1" width="1" x="23" y="34" /><rect fill="rgb(0,153,255)" height="1" width="1" x="24" y="34" /><rect fill="rgb(0,153,255)" height="1" width="1" x="25" y="34" /><rect fill="rgb(0,153,255)" height="1" width="1" x="26" y="34" /><rect fill="rgb(0,153,255)" height="1" width="1" x="20" y="35" /><rect fill="rgb(0,153,255)" height="1" width="1" x="21" y="35" /><rect fill="rgb(0,153,255)" height="1" width="1" x="22" y="35" /><rect fill="rgb(0,153,255)" height="1" width="1" x="23" y="35" /><rect fill="rgb(0,153,255)" height="1" width="1" x="24" y="35" /><rect fill="rgb(0,153,255)" height="1" width="1" x="25" y="35" /><rect fill="rgb(0,153,255)" height="1" width="1" x="26" y="35" /><rect fill="rgb(0,153,255)" height="1" width="1" x="21" y="36" /><rect fill="rgb(0,153,255)" height="1" width="1" x="22" y="36" /><rect fill="rgb(0,153,255)" height="1" width="1" x="23" y="36" /><rect fill="rgb(0,153,255)" height="1" width="1" x="24" y="36" /><rect fill="rgb(0,153,255)" height="1" width="1" x="25" y="36" /><rect fill="rgb(0,153,255)" height="1" width="1" x="26" y="36" /><rect fill="rgb(0,153,255)" height="1" width="1" x="23" y="37" /><rect fill="rgb(0,153,255)" height="1" width="1" x="24" y="37" /><rect fill="rgb(0,153,255)" height="1" width="1" x="25" y="37" /><rect fill="rgb(0,153,255)" height="1" width="1" x="26" y="37" /><rect fill="rgb(0,153,255)" height="1" width="1" x="25" y="38" /><rect fill="rgb(0,153,255)" height="1" width="1" x="26" y="38" /></svg>